<svg width="44" height="44" viewBox="0 0 44 44" fill="none" xmlns="http://www.w3.org/2000/svg">
<path d="M4.84353 20.9208L4.84352 20.9208L4.84257 20.9236C3.97218 23.4971 3.5332 25.987 3.5332 28.3911V35.537C3.5332 36.3654 4.20478 37.037 5.0332 37.037H14.2304C15.0588 37.037 15.7304 36.3654 15.7304 35.537L15.7304 28.3113L15.7304 28.3071C15.7049 25.276 16.1881 22.5195 17.1723 20.0311C18.0773 17.7771 19.1723 15.605 20.4574 13.5145C20.8809 12.8257 20.6986 11.9125 20.014 11.4563L14.9224 8.06345L14.9224 8.06345C14.3736 7.69778 13.6361 7.7272 13.1282 8.17695C11.4238 9.686 9.87396 11.4878 8.47731 13.5786L8.47662 13.5797C6.94993 15.8776 5.73869 18.3249 4.84353 20.9208ZM24.5552 20.9208L24.5543 20.9236C23.6839 23.4971 23.2449 25.987 23.2449 28.3911V35.537C23.2449 36.3654 23.9165 37.037 24.7449 37.037H33.9421C34.7705 37.037 35.4421 36.3654 35.4421 35.537L35.4421 28.3113L35.442 28.3071C35.4166 25.2761 35.8998 22.5197 36.8838 20.0314C37.7889 17.7773 38.8839 15.6051 40.1691 13.5145C40.5925 12.8257 40.4102 11.9125 39.7257 11.4563L34.634 8.06345L34.634 8.06345C34.0853 7.69778 33.3478 7.7272 32.8398 8.17695L33.1713 8.55131L32.8398 8.17695C31.1354 9.686 29.5856 11.4878 28.189 13.5786L28.1883 13.5797C26.6616 15.8776 25.4504 18.3249 24.5552 20.9208Z" fill="url(#paint0_linear_108_2662)" stroke="#CAFF33"/>
<defs>
<linearGradient id="paint0_linear_108_2662" x1="22.1508" y1="8.06641" x2="22.1508" y2="36.537" gradientUnits="userSpaceOnUse">
<stop stop-color="#CAFF33"/>
<stop offset="1" stop-color="#191919"/>
</linearGradient>
</defs>
</svg>
