<svg width="296" height="56" viewBox="0 0 296 56" fill="none" xmlns="http://www.w3.org/2000/svg">
<rect x="0.566406" y="0.220703" width="294.869" height="55.0169" rx="27.5085" fill="#22251B"/>
<path d="M20.9861 32.3535C20.515 32.3535 20.077 32.2915 19.6721 32.1675C19.2754 32.0436 18.9118 31.8576 18.5813 31.6097C18.259 31.3535 17.9697 31.0395 17.7135 30.6676L18.6308 29.614C19.0358 30.1924 19.4242 30.5932 19.796 30.8164C20.1679 31.0395 20.61 31.1511 21.1224 31.1511C21.4364 31.1511 21.7215 31.1015 21.9777 31.0023C22.2339 30.9031 22.4364 30.7668 22.5851 30.5932C22.7339 30.4197 22.8082 30.2214 22.8082 29.9982C22.8082 29.8495 22.7835 29.709 22.7339 29.5768C22.6843 29.4446 22.6058 29.3247 22.4983 29.2173C22.3992 29.1099 22.267 29.0107 22.1017 28.9198C21.9447 28.8289 21.7587 28.7504 21.5439 28.6843C21.329 28.6099 21.0811 28.5479 20.8001 28.4983C20.3539 28.4074 19.9655 28.2876 19.6349 28.1389C19.3043 27.9901 19.0275 27.8042 18.8044 27.581C18.5813 27.3579 18.416 27.1059 18.3085 26.8249C18.2011 26.5357 18.1474 26.2134 18.1474 25.858C18.1474 25.5109 18.2218 25.1886 18.3705 24.8911C18.5275 24.5936 18.7383 24.3375 19.0027 24.1226C19.2754 23.8995 19.5936 23.7301 19.9572 23.6144C20.3208 23.4904 20.7133 23.4284 21.1348 23.4284C21.5811 23.4284 21.9901 23.4863 22.362 23.602C22.7339 23.7177 23.0644 23.8912 23.3537 24.1226C23.6429 24.3457 23.8826 24.6226 24.0726 24.9531L23.1305 25.8828C22.9653 25.6101 22.7793 25.3828 22.5727 25.201C22.3661 25.011 22.1389 24.8705 21.891 24.7796C21.643 24.6804 21.3786 24.6308 21.0976 24.6308C20.7753 24.6308 20.4943 24.6804 20.2547 24.7796C20.015 24.8787 19.825 25.0192 19.6845 25.201C19.5523 25.3746 19.4862 25.5812 19.4862 25.8208C19.4862 25.9944 19.5192 26.1555 19.5853 26.3043C19.6514 26.4448 19.7506 26.5728 19.8828 26.6885C20.0233 26.796 20.2092 26.8951 20.4406 26.986C20.672 27.0687 20.9489 27.1431 21.2712 27.2092C21.7257 27.3083 22.1306 27.4364 22.486 27.5934C22.8413 27.7422 23.1429 27.9199 23.3908 28.1265C23.6388 28.3331 23.8247 28.5644 23.9487 28.8206C24.0809 29.0768 24.147 29.3537 24.147 29.6512C24.147 30.2048 24.0189 30.6841 23.7627 31.0891C23.5065 31.494 23.1429 31.808 22.6719 32.0312C22.2008 32.246 21.6389 32.3535 20.9861 32.3535ZM28.0024 32.3535C27.5396 32.3535 27.1347 32.246 26.7876 32.0312C26.4488 31.8163 26.1843 31.5147 25.9943 31.1263C25.8125 30.7379 25.7216 30.2751 25.7216 29.7379V25.7217H26.9983V29.3908C26.9983 29.771 27.0562 30.1015 27.1719 30.3825C27.2958 30.6552 27.4694 30.8659 27.6925 31.0147C27.9239 31.1634 28.2007 31.2378 28.523 31.2378C28.7627 31.2378 28.9817 31.2006 29.18 31.1263C29.3783 31.0436 29.5478 30.9321 29.6882 30.7916C29.837 30.6511 29.9527 30.4817 30.0353 30.2833C30.118 30.085 30.1593 29.8701 30.1593 29.6388V25.7217H31.4361V32.2295H30.1593V30.8659L30.3824 30.7172C30.2832 31.023 30.1138 31.2998 29.8742 31.5477C29.6428 31.7956 29.3659 31.994 29.0437 32.1427C28.7214 32.2832 28.3743 32.3535 28.0024 32.3535ZM33.2269 34.9566V25.7217H34.516V27.2092L34.3177 27.0976C34.3673 26.8497 34.5078 26.6142 34.7392 26.391C34.9706 26.1596 35.2515 25.9737 35.5821 25.8332C35.9209 25.6845 36.268 25.6101 36.6233 25.6101C37.2101 25.6101 37.7307 25.7547 38.1852 26.044C38.6397 26.3332 38.9992 26.7299 39.2637 27.234C39.5281 27.7381 39.6603 28.3165 39.6603 28.9694C39.6603 29.614 39.5281 30.1924 39.2637 30.7048C39.0075 31.2089 38.6521 31.6097 38.1976 31.9072C37.7431 32.1964 37.2307 32.3411 36.6605 32.3411C36.2804 32.3411 35.9126 32.2667 35.5573 32.1179C35.2019 31.9609 34.9003 31.7626 34.6524 31.5229C34.4045 31.2833 34.2516 31.0354 34.1937 30.7792L34.516 30.6056V34.9566H33.2269ZM36.4498 31.1634C36.8299 31.1634 37.1688 31.0684 37.4663 30.8783C37.7638 30.6883 37.9993 30.428 38.1728 30.0974C38.3464 29.7668 38.4331 29.3908 38.4331 28.9694C38.4331 28.5479 38.3464 28.176 38.1728 27.8538C38.0075 27.5232 37.7762 27.2629 37.4787 27.0728C37.1812 26.8827 36.8382 26.7877 36.4498 26.7877C36.0614 26.7877 35.7184 26.8827 35.4209 27.0728C35.1234 27.2546 34.8879 27.5108 34.7144 27.8414C34.5408 28.1719 34.4541 28.5479 34.4541 28.9694C34.4541 29.3908 34.5408 29.7668 34.7144 30.0974C34.8879 30.428 35.1234 30.6883 35.4209 30.8783C35.7184 31.0684 36.0614 31.1634 36.4498 31.1634ZM41.0469 34.9566V25.7217H42.3361V27.2092L42.1378 27.0976C42.1873 26.8497 42.3278 26.6142 42.5592 26.391C42.7906 26.1596 43.0716 25.9737 43.4021 25.8332C43.741 25.6845 44.088 25.6101 44.4434 25.6101C45.0301 25.6101 45.5508 25.7547 46.0053 26.044C46.4598 26.3332 46.8193 26.7299 47.0837 27.234C47.3482 27.7381 47.4804 28.3165 47.4804 28.9694C47.4804 29.614 47.3482 30.1924 47.0837 30.7048C46.8275 31.2089 46.4722 31.6097 46.0177 31.9072C45.5631 32.1964 45.0508 32.3411 44.4806 32.3411C44.1004 32.3411 43.7327 32.2667 43.3773 32.1179C43.022 31.9609 42.7204 31.7626 42.4724 31.5229C42.2245 31.2833 42.0716 31.0354 42.0138 30.7792L42.3361 30.6056V34.9566H41.0469ZM44.2698 31.1634C44.65 31.1634 44.9888 31.0684 45.2863 30.8783C45.5838 30.6883 45.8193 30.428 45.9929 30.0974C46.1664 29.7668 46.2532 29.3908 46.2532 28.9694C46.2532 28.5479 46.1664 28.176 45.9929 27.8538C45.8276 27.5232 45.5962 27.2629 45.2987 27.0728C45.0012 26.8827 44.6582 26.7877 44.2698 26.7877C43.8814 26.7877 43.5385 26.8827 43.241 27.0728C42.9435 27.2546 42.708 27.5108 42.5344 27.8414C42.3609 28.1719 42.2741 28.5479 42.2741 28.9694C42.2741 29.3908 42.3609 29.7668 42.5344 30.0974C42.708 30.428 42.9435 30.6883 43.241 30.8783C43.5385 31.0684 43.8814 31.1634 44.2698 31.1634ZM51.7924 32.3535C51.1561 32.3535 50.5859 32.2088 50.0818 31.9196C49.5859 31.6221 49.1934 31.2213 48.9042 30.7172C48.6149 30.2048 48.4703 29.6222 48.4703 28.9694C48.4703 28.3165 48.6149 27.7381 48.9042 27.234C49.1934 26.7216 49.5859 26.3208 50.0818 26.0316C50.5859 25.7341 51.1561 25.5853 51.7924 25.5853C52.4204 25.5853 52.9824 25.7341 53.4782 26.0316C53.9823 26.3208 54.379 26.7216 54.6682 27.234C54.9575 27.7381 55.1021 28.3165 55.1021 28.9694C55.1021 29.6222 54.9575 30.2048 54.6682 30.7172C54.379 31.2213 53.9823 31.6221 53.4782 31.9196C52.9824 32.2088 52.4204 32.3535 51.7924 32.3535ZM51.7924 31.1882C52.1808 31.1882 52.5279 31.0932 52.8336 30.9031C53.1394 30.7048 53.3791 30.4404 53.5526 30.1098C53.7261 29.771 53.8088 29.3908 53.8005 28.9694C53.8088 28.5397 53.7261 28.1595 53.5526 27.829C53.3791 27.4901 53.1394 27.2257 52.8336 27.0356C52.5279 26.8456 52.1808 26.7505 51.7924 26.7505C51.404 26.7505 51.0528 26.8497 50.7387 27.048C50.433 27.2381 50.1933 27.5025 50.0198 27.8414C49.8462 28.1719 49.7636 28.5479 49.7719 28.9694C49.7636 29.3908 49.8462 29.771 50.0198 30.1098C50.1933 30.4404 50.433 30.7048 50.7387 30.9031C51.0528 31.0932 51.404 31.1882 51.7924 31.1882ZM56.4933 32.2295V25.7217H57.7825V27.767L57.6585 27.2711C57.7494 26.9571 57.9023 26.672 58.1172 26.4158C58.3403 26.1597 58.5924 25.9572 58.8733 25.8084C59.1626 25.6597 59.4601 25.5853 59.7658 25.5853C59.9063 25.5853 60.0385 25.5977 60.1625 25.6225C60.2947 25.6473 60.398 25.6762 60.4724 25.7093L60.1377 27.0976C60.0385 27.0563 59.927 27.0232 59.803 26.9984C59.6873 26.9654 59.5716 26.9489 59.4559 26.9489C59.2328 26.9489 59.018 26.9943 58.8114 27.0852C58.613 27.1678 58.4353 27.2877 58.2783 27.4447C58.1296 27.5934 58.0098 27.7711 57.9189 27.9777C57.828 28.176 57.7825 28.395 57.7825 28.6347V32.2295H56.4933ZM62.5407 32.2295V24.0606H63.8174V32.2295H62.5407ZM61.1895 26.9612V25.7217H65.3297V26.9612H61.1895ZM69.4688 32.3535C68.7994 32.3535 68.2044 32.213 67.6838 31.932C67.1714 31.6428 66.7665 31.2502 66.469 30.7544C66.1798 30.2585 66.0351 29.6883 66.0351 29.0438C66.0351 28.5314 66.1178 28.0645 66.2831 27.643C66.4483 27.2216 66.6756 26.858 66.9648 26.5522C67.2623 26.2382 67.6136 25.9985 68.0185 25.8332C68.4317 25.6597 68.8779 25.5729 69.3572 25.5729C69.7787 25.5729 70.1712 25.6556 70.5348 25.8208C70.8985 25.9778 71.2125 26.1968 71.4769 26.4778C71.7496 26.7588 71.9562 27.0935 72.0967 27.4819C72.2455 27.862 72.3157 28.2793 72.3075 28.7339L72.2951 29.2793H66.9772L66.6921 28.2628H71.1918L71.0059 28.4735V28.176C70.9811 27.9033 70.8902 27.6595 70.7332 27.4447C70.5762 27.2298 70.3778 27.0604 70.1382 26.9365C69.8985 26.8125 69.6382 26.7505 69.3572 26.7505C68.911 26.7505 68.535 26.8373 68.2292 27.0108C67.9234 27.1761 67.6921 27.424 67.535 27.7546C67.378 28.0769 67.2995 28.4777 67.2995 28.957C67.2995 29.4115 67.3946 29.8082 67.5846 30.147C67.7747 30.4775 68.0433 30.7337 68.3904 30.9155C68.7374 31.0973 69.1382 31.1882 69.5928 31.1882C69.9151 31.1882 70.2126 31.1345 70.4853 31.0271C70.7662 30.9197 71.0679 30.7255 71.3902 30.4445L72.0347 31.3494C71.8364 31.5477 71.5926 31.7213 71.3034 31.87C71.0224 32.0188 70.7208 32.1386 70.3985 32.2295C70.0845 32.3121 69.7746 32.3535 69.4688 32.3535ZM76.4097 32.3535C75.8147 32.3535 75.2817 32.2088 74.8106 31.9196C74.3479 31.6221 73.9801 31.2213 73.7074 30.7172C73.4347 30.2048 73.2983 29.6222 73.2983 28.9694C73.2983 28.3165 73.4306 27.7381 73.695 27.234C73.9677 26.7216 74.3355 26.3208 74.7982 26.0316C75.261 25.7341 75.7858 25.5853 76.3725 25.5853C76.6948 25.5853 77.0047 25.639 77.3022 25.7465C77.608 25.8456 77.8807 25.9861 78.1203 26.1679C78.36 26.3415 78.5459 26.5357 78.6782 26.7505C78.8186 26.9571 78.8889 27.1678 78.8889 27.3827L78.517 27.4075V23.0566H79.7938V32.2295H78.517V30.68H78.7649C78.7649 30.8783 78.6988 31.0767 78.5666 31.275C78.4344 31.4651 78.2567 31.6428 78.0336 31.808C77.8187 31.9733 77.5667 32.1055 77.2774 32.2047C76.9964 32.3039 76.7072 32.3535 76.4097 32.3535ZM76.5833 31.2502C76.9717 31.2502 77.3146 31.1511 77.6121 30.9527C77.9096 30.7544 78.141 30.4858 78.3063 30.147C78.4798 29.7999 78.5666 29.4074 78.5666 28.9694C78.5666 28.5314 78.4798 28.143 78.3063 27.8042C78.141 27.4571 77.9096 27.1844 77.6121 26.986C77.3146 26.7877 76.9717 26.6885 76.5833 26.6885C76.1948 26.6885 75.8519 26.7877 75.5544 26.986C75.2569 27.1844 75.0214 27.4571 74.8478 27.8042C74.6826 28.143 74.5999 28.5314 74.5999 28.9694C74.5999 29.4074 74.6826 29.7999 74.8478 30.147C75.0214 30.4858 75.2569 30.7544 75.5544 30.9527C75.8519 31.1511 76.1948 31.2502 76.5833 31.2502ZM88.8683 32.3535C88.2651 32.3535 87.7114 32.246 87.2073 32.0312C86.7032 31.8163 86.2652 31.5105 85.8933 31.1139C85.5214 30.7089 85.2322 30.2338 85.0256 29.6883C84.8273 29.1429 84.7281 28.5438 84.7281 27.8909C84.7281 27.2711 84.8355 26.6968 85.0504 26.1679C85.2735 25.6308 85.5793 25.1597 85.9677 24.7548C86.3561 24.3499 86.8065 24.0358 87.3188 23.8127C87.8312 23.5896 88.3849 23.478 88.9799 23.478C89.4014 23.478 89.8104 23.5441 90.2071 23.6763C90.612 23.8003 90.9756 23.978 91.2979 24.2094C91.6285 24.4325 91.8971 24.6887 92.1037 24.9779L91.2111 25.9076C90.9715 25.6679 90.7277 25.4696 90.4798 25.3126C90.2401 25.1473 89.9922 25.0234 89.736 24.9407C89.4881 24.8581 89.2361 24.8168 88.9799 24.8168C88.575 24.8168 88.1948 24.8953 87.8395 25.0523C87.4924 25.201 87.1866 25.4118 86.9222 25.6845C86.666 25.9572 86.4635 26.2836 86.3148 26.6637C86.166 27.0356 86.0917 27.4447 86.0917 27.8909C86.0917 28.362 86.1619 28.7917 86.3024 29.1801C86.4511 29.5602 86.6577 29.8867 86.9222 30.1594C87.1866 30.4321 87.5007 30.6428 87.8643 30.7916C88.2361 30.9321 88.6452 31.0023 89.0915 31.0023C89.3642 31.0023 89.6327 30.9651 89.8972 30.8907C90.1616 30.8164 90.4096 30.7089 90.6409 30.5684C90.8723 30.428 91.0831 30.2627 91.2731 30.0726L91.9425 31.1634C91.7524 31.3866 91.4921 31.589 91.1616 31.7708C90.8393 31.9527 90.4757 32.0973 90.0707 32.2047C89.6741 32.3039 89.2733 32.3535 88.8683 32.3535ZM95.7197 32.3535C95.2569 32.3535 94.8519 32.246 94.5049 32.0312C94.166 31.8163 93.9016 31.5147 93.7115 31.1263C93.5297 30.7379 93.4388 30.2751 93.4388 29.7379V25.7217H94.7156V29.3908C94.7156 29.771 94.7734 30.1015 94.8891 30.3825C95.0131 30.6552 95.1866 30.8659 95.4098 31.0147C95.6412 31.1634 95.918 31.2378 96.2403 31.2378C96.4799 31.2378 96.6989 31.2006 96.8973 31.1263C97.0956 31.0436 97.265 30.9321 97.4055 30.7916C97.5542 30.6511 97.6699 30.4817 97.7526 30.2833C97.8352 30.085 97.8765 29.8701 97.8765 29.6388V25.7217H99.1533V32.2295H97.8765V30.8659L98.0997 30.7172C98.0005 31.023 97.8311 31.2998 97.5914 31.5477C97.36 31.7956 97.0832 31.994 96.7609 32.1427C96.4386 32.2832 96.0915 32.3535 95.7197 32.3535ZM100.944 32.2295V25.7217H102.233V27.767L102.109 27.2711C102.2 26.9571 102.353 26.672 102.568 26.4158C102.791 26.1597 103.043 25.9572 103.324 25.8084C103.613 25.6597 103.911 25.5853 104.217 25.5853C104.357 25.5853 104.489 25.5977 104.613 25.6225C104.746 25.6473 104.849 25.6762 104.923 25.7093L104.589 27.0976C104.489 27.0563 104.378 27.0232 104.254 26.9984C104.138 26.9654 104.022 26.9489 103.907 26.9489C103.684 26.9489 103.469 26.9943 103.262 27.0852C103.064 27.1678 102.886 27.2877 102.729 27.4447C102.58 27.5934 102.461 27.7711 102.37 27.9777C102.279 28.176 102.233 28.395 102.233 28.6347V32.2295H100.944ZM105.944 32.2295V25.7217H107.233V27.767L107.109 27.2711C107.2 26.9571 107.353 26.672 107.567 26.4158C107.791 26.1597 108.043 25.9572 108.324 25.8084C108.613 25.6597 108.91 25.5853 109.216 25.5853C109.357 25.5853 109.489 25.5977 109.613 25.6225C109.745 25.6473 109.848 25.6762 109.923 25.7093L109.588 27.0976C109.489 27.0563 109.377 27.0232 109.253 26.9984C109.138 26.9654 109.022 26.9489 108.906 26.9489C108.683 26.9489 108.468 26.9943 108.262 27.0852C108.063 27.1678 107.886 27.2877 107.729 27.4447C107.58 27.5934 107.46 27.7711 107.369 27.9777C107.278 28.176 107.233 28.395 107.233 28.6347V32.2295H105.944ZM113.702 32.3535C113.032 32.3535 112.437 32.213 111.917 31.932C111.404 31.6428 110.999 31.2502 110.702 30.7544C110.413 30.2585 110.268 29.6883 110.268 29.0438C110.268 28.5314 110.351 28.0645 110.516 27.643C110.681 27.2216 110.908 26.858 111.198 26.5522C111.495 26.2382 111.846 25.9985 112.251 25.8332C112.665 25.6597 113.111 25.5729 113.59 25.5729C114.012 25.5729 114.404 25.6556 114.768 25.8208C115.131 25.9778 115.445 26.1968 115.71 26.4778C115.983 26.7588 116.189 27.0935 116.33 27.4819C116.478 27.862 116.549 28.2793 116.54 28.7339L116.528 29.2793H111.21L110.925 28.2628H115.425L115.239 28.4735V28.176C115.214 27.9033 115.123 27.6595 114.966 27.4447C114.809 27.2298 114.611 27.0604 114.371 26.9365C114.131 26.8125 113.871 26.7505 113.59 26.7505C113.144 26.7505 112.768 26.8373 112.462 27.0108C112.156 27.1761 111.925 27.424 111.768 27.7546C111.611 28.0769 111.532 28.4777 111.532 28.957C111.532 29.4115 111.627 29.8082 111.818 30.147C112.008 30.4775 112.276 30.7337 112.623 30.9155C112.97 31.0973 113.371 31.1882 113.826 31.1882C114.148 31.1882 114.445 31.1345 114.718 31.0271C114.999 30.9197 115.301 30.7255 115.623 30.4445L116.268 31.3494C116.069 31.5477 115.826 31.7213 115.536 31.87C115.255 32.0188 114.954 32.1386 114.631 32.2295C114.317 32.3121 114.007 32.3535 113.702 32.3535ZM117.928 32.2295V25.7217H119.205V27.0604L118.982 27.2092C119.064 26.9199 119.225 26.6555 119.465 26.4158C119.705 26.1679 119.99 25.9696 120.32 25.8208C120.651 25.6638 120.99 25.5853 121.337 25.5853C121.833 25.5853 122.246 25.6845 122.576 25.8828C122.907 26.0729 123.155 26.3662 123.32 26.7629C123.485 27.1596 123.568 27.6595 123.568 28.2628V32.2295H122.291V28.3496C122.291 27.9777 122.242 27.6719 122.143 27.4323C122.043 27.1844 121.89 27.0067 121.684 26.8993C121.477 26.7836 121.221 26.734 120.915 26.7505C120.667 26.7505 120.44 26.7918 120.234 26.8745C120.027 26.9489 119.845 27.0563 119.688 27.1968C119.539 27.3373 119.42 27.5025 119.329 27.6926C119.246 27.8744 119.205 28.0727 119.205 28.2876V32.2295H118.573C118.465 32.2295 118.358 32.2295 118.25 32.2295C118.143 32.2295 118.035 32.2295 117.928 32.2295ZM128.064 32.3535C127.461 32.3535 126.92 32.2047 126.44 31.9072C125.969 31.6097 125.593 31.2048 125.312 30.6924C125.04 30.18 124.903 29.6057 124.903 28.9694C124.903 28.3331 125.04 27.7587 125.312 27.2464C125.593 26.734 125.969 26.3291 126.44 26.0316C126.92 25.7341 127.461 25.5853 128.064 25.5853C128.643 25.5853 129.168 25.7051 129.639 25.9448C130.118 26.1762 130.482 26.4943 130.729 26.8993L130.023 27.767C129.891 27.5769 129.721 27.4034 129.515 27.2464C129.308 27.0893 129.089 26.9654 128.858 26.8745C128.626 26.7836 128.403 26.7381 128.188 26.7381C127.792 26.7381 127.436 26.8373 127.122 27.0356C126.816 27.2257 126.573 27.4901 126.391 27.829C126.209 28.1678 126.118 28.5479 126.118 28.9694C126.118 29.3908 126.213 29.771 126.403 30.1098C126.593 30.4404 126.845 30.7048 127.159 30.9031C127.473 31.1015 127.821 31.2006 128.201 31.2006C128.424 31.2006 128.639 31.1634 128.845 31.0891C129.06 31.0147 129.267 30.9031 129.465 30.7544C129.663 30.6056 129.849 30.4238 130.023 30.209L130.729 31.0767C130.465 31.4486 130.085 31.7543 129.589 31.994C129.101 32.2336 128.593 32.3535 128.064 32.3535ZM132.843 35.0805L134.157 32.0436L134.169 33.06L130.922 25.7217H132.409L134.442 30.5065C134.483 30.5891 134.533 30.7172 134.591 30.8907C134.649 31.056 134.698 31.2213 134.74 31.3866L134.417 31.4609C134.483 31.2874 134.545 31.1139 134.603 30.9403C134.669 30.7668 134.731 30.5932 134.789 30.4197L136.487 25.7217H138L135.322 32.2295L134.219 35.0805H132.843Z" fill="white"/>
<rect x="148.102" y="7.45175" width="140.102" height="40.5551" rx="20.2775" fill="#1A1A1A"/>
<rect x="148.102" y="7.45175" width="140.102" height="40.5551" rx="20.2775" stroke="#262626" stroke-width="0.688659"/>
<path fill-rule="evenodd" clip-rule="evenodd" d="M168.456 41.4647C176.083 41.4647 182.267 35.3152 182.267 27.7294C182.267 20.1436 176.083 13.9941 168.456 13.9941C160.828 13.9941 154.645 20.1436 154.645 27.7294C154.645 35.3152 160.828 41.4647 168.456 41.4647Z" fill="#262626"/>
<path fill-rule="evenodd" clip-rule="evenodd" d="M167.245 21.3906C168.003 21.3906 168.759 21.3906 169.517 21.3906C169.473 21.9009 169.425 22.414 169.384 22.9243C170.268 22.9881 171.129 23.2709 171.905 23.6897C171.57 24.5273 171.232 25.3648 170.895 26.2023C170.243 25.6505 169.384 25.3454 168.527 25.3565C168.313 25.362 168.09 25.4036 167.911 25.5257C167.794 25.6061 167.708 25.7309 167.683 25.8695C167.663 25.9805 167.669 26.1053 167.73 26.2051C167.8 26.316 167.922 26.3826 168.045 26.4242C168.296 26.513 168.567 26.5185 168.829 26.5462C169.445 26.6211 170.064 26.7265 170.647 26.9456C171.099 27.1175 171.531 27.3755 171.84 27.7526C172.133 28.0993 172.303 28.5375 172.367 28.9868C172.443 29.5054 172.42 30.0434 172.259 30.5481C172.133 30.953 171.918 31.3302 171.64 31.6491C171.062 32.3147 170.215 32.7141 169.345 32.8167C169.372 33.3631 169.406 33.9066 169.437 34.453C168.717 34.453 168 34.453 167.284 34.453C167.312 33.9122 167.348 33.3714 167.373 32.8306C166.796 32.8112 166.224 32.6836 165.686 32.4811C165.164 32.2842 164.668 32.0235 164.205 31.7185C164.545 30.8477 164.886 29.9768 165.229 29.1032C165.616 29.4277 166.029 29.73 166.481 29.9602C166.966 30.207 167.504 30.3651 168.051 30.3706C168.31 30.3734 168.578 30.3596 168.823 30.2708C168.974 30.2153 169.121 30.1183 169.188 29.9657C169.258 29.8049 169.253 29.6024 169.147 29.4582C169.071 29.3612 168.965 29.2946 168.854 29.2475C168.703 29.1864 168.547 29.1532 168.388 29.1282C167.802 29.0339 167.214 28.9563 166.648 28.7732C166.193 28.6262 165.75 28.421 165.387 28.1048C165.159 27.9079 164.969 27.6667 164.835 27.3949C164.635 26.99 164.559 26.5324 164.565 26.0831C164.565 25.5811 164.668 25.0708 164.919 24.6299C165.136 24.2361 165.468 23.9143 165.842 23.6675C166.294 23.3708 166.799 23.1683 167.312 23.0047C167.289 22.4667 167.267 21.9286 167.245 21.3906Z" fill="#CAFF33"/>
<path d="M215.322 27.7302C215.322 35.2761 209.172 41.3932 201.584 41.3932C193.997 41.3932 187.846 35.2761 187.846 27.7302C187.846 20.1844 193.997 14.0674 201.584 14.0674C209.172 14.0674 215.322 20.1844 215.322 27.7302Z" fill="#262626"/>
<path d="M205.443 33.4381L205.126 32.0065C205.108 31.9223 205.063 31.8592 204.99 31.8174C204.912 31.7753 204.833 31.7695 204.755 31.7995L204.71 31.8174L204.601 31.8444C204.552 31.8562 204.497 31.8698 204.433 31.8848C204.37 31.8998 204.296 31.9147 204.211 31.9298C204.127 31.9448 204.038 31.9584 203.944 31.9704C203.851 31.9822 203.75 31.9929 203.641 32.0019C203.532 32.0108 203.424 32.0153 203.315 32.0153C202.548 32.0153 201.859 31.8098 201.246 31.3986C200.633 30.9873 200.182 30.4305 199.893 29.7282H203.396C203.463 29.7282 203.523 29.7058 203.577 29.6607C203.632 29.6157 203.665 29.5603 203.677 29.494L203.894 28.4855C203.913 28.3957 203.894 28.3145 203.84 28.2424C203.78 28.1703 203.704 28.1343 203.614 28.1343H199.458C199.44 27.7261 199.44 27.4109 199.458 27.1888H203.876C204.04 27.1888 204.136 27.1108 204.166 26.9547L204.384 25.9282C204.402 25.8442 204.381 25.7662 204.32 25.6941C204.266 25.6221 204.191 25.5859 204.094 25.5859H199.856C200.158 24.9136 200.611 24.3853 201.215 24.0011C201.818 23.6168 202.5 23.4248 203.261 23.4248C203.285 23.4128 203.374 23.4158 203.528 23.4338C203.682 23.4517 203.769 23.4593 203.791 23.4562C203.811 23.4533 203.89 23.4623 204.026 23.4832C204.162 23.5042 204.23 23.5148 204.23 23.5148L204.388 23.5462C204.433 23.5553 204.468 23.5627 204.492 23.5688L204.529 23.5777C204.607 23.6019 204.679 23.5943 204.746 23.5553C204.812 23.5162 204.855 23.4577 204.873 23.3797L205.262 21.948C205.28 21.8699 205.271 21.7979 205.235 21.7319C205.181 21.6597 205.12 21.6147 205.054 21.5968C204.498 21.4587 203.913 21.3896 203.297 21.3896C201.945 21.3896 200.736 21.774 199.671 22.5422C198.605 23.3106 197.87 24.3252 197.466 25.5858H196.579C196.494 25.5858 196.425 25.6128 196.371 25.6668C196.316 25.7208 196.289 25.7898 196.289 25.8739V26.9004C196.289 26.9845 196.316 27.0535 196.371 27.1074C196.425 27.1615 196.494 27.1884 196.579 27.1884H197.185C197.167 27.4767 197.164 27.7916 197.176 28.134H196.579C196.5 28.134 196.432 28.1625 196.375 28.2195C196.318 28.2765 196.289 28.3441 196.289 28.422V29.4396C196.289 29.5177 196.318 29.5851 196.375 29.6423C196.432 29.6993 196.5 29.7276 196.579 29.7276H197.439C197.819 31.0542 198.538 32.1094 199.594 32.8927C200.65 33.6763 201.885 34.0679 203.297 34.0679C203.412 34.0679 203.528 34.0651 203.646 34.0588C203.764 34.0528 203.874 34.0437 203.976 34.0319C204.079 34.02 204.18 34.0066 204.28 33.9915C204.379 33.9764 204.47 33.9616 204.551 33.9464C204.633 33.9315 204.71 33.9165 204.782 33.9016C204.855 33.8864 204.92 33.8701 204.977 33.852C205.034 33.8342 205.082 33.8205 205.122 33.8117C205.161 33.8027 205.193 33.792 205.217 33.7802L205.262 33.7711C205.328 33.7471 205.38 33.7036 205.416 33.6404C205.452 33.5778 205.461 33.5101 205.443 33.4381Z" fill="#CAFF33"/>
<path d="M248.116 31.0523C246.272 38.4106 238.778 42.8883 231.378 41.0538C223.981 39.2193 219.479 31.7661 221.324 24.4083C223.167 17.0492 230.661 12.5706 238.059 14.4052C245.458 16.2397 249.961 23.6937 248.116 31.0523H248.116Z" fill="#262626"/>
<path fill-rule="evenodd" clip-rule="evenodd" d="M238.878 26.1343C239.064 24.8944 238.115 24.2279 236.817 23.7833L237.238 22.1037L236.21 21.8489L235.8 23.4842C235.53 23.4173 235.252 23.3541 234.976 23.2915L235.389 21.6454L234.362 21.3906L233.941 23.0696C233.717 23.0189 233.497 22.9688 233.284 22.9161L233.285 22.9109L231.868 22.5588L231.594 23.6508C231.594 23.6508 232.357 23.8246 232.341 23.8354C232.757 23.9388 232.833 24.2128 232.82 24.43L232.34 26.3433C232.369 26.3506 232.406 26.3611 232.447 26.3774L232.339 26.3506L231.666 29.0309C231.615 29.1567 231.486 29.3454 231.195 29.2738C231.205 29.2886 230.448 29.0883 230.448 29.0883L229.938 30.2589L231.276 30.5905C231.427 30.6282 231.576 30.6669 231.723 30.7052C231.819 30.73 231.914 30.7546 232.008 30.7786L231.583 32.4777L232.61 32.7324L233.031 31.0517C233.311 31.1275 233.584 31.1973 233.85 31.2631L233.43 32.936L234.458 33.1908L234.884 31.4952C236.637 31.8251 237.955 31.6921 238.509 30.1156C238.956 28.846 238.487 28.1137 237.565 27.6359C238.237 27.4813 238.743 27.0419 238.878 26.1343H238.878ZM236.527 29.4094C236.235 30.5746 234.401 30.0924 233.562 29.872C233.487 29.8523 233.42 29.8347 233.363 29.8205L233.927 27.57C233.997 27.5873 234.083 27.6064 234.18 27.6281L234.18 27.6281C235.047 27.8217 236.825 28.2184 236.527 29.4094H236.527ZM234.354 26.584C235.054 26.7696 236.579 27.1742 236.845 26.1157C237.116 25.0329 235.633 24.7065 234.909 24.5471C234.828 24.5292 234.756 24.5133 234.697 24.4988L234.185 26.54C234.234 26.552 234.291 26.5671 234.354 26.584Z" fill="#CAFF33"/>
<path d="M281.586 27.7292C281.586 35.2751 275.435 41.3922 267.848 41.3922C260.26 41.3922 254.109 35.2751 254.109 27.7292C254.109 20.1835 260.26 14.0664 267.848 14.0664C275.435 14.0664 281.586 20.1835 281.586 27.7292Z" fill="#262626"/>
<g opacity="0.8">
<path d="M267.802 21.3906L267.717 21.6775V30.0008L267.802 30.0851L271.687 27.8013L267.802 21.3906Z" fill="#CAFF33"/>
<path d="M267.803 21.3906L263.918 27.8013L267.803 30.0851V26.0452V21.3906Z" fill="#CAFF33"/>
<path d="M267.804 31.3422L267.756 31.4002V34.3651L267.804 34.504L271.691 29.0596L267.804 31.3422Z" fill="#CAFF33"/>
<path d="M267.803 34.5041V31.3422L263.918 29.0596L267.803 34.5041Z" fill="#CAFF33"/>
<path d="M267.803 30.0848L271.688 27.801L267.803 26.0449V30.0848Z" fill="#CAFF33"/>
<path d="M263.918 27.801L267.803 30.0848V26.0449L263.918 27.801Z" fill="#CAFF33"/>
</g>
</svg>
